<?xml version="1.0" encoding="UTF-8"?><svg id="a" xmlns="http://www.w3.org/2000/svg" viewBox="0 0 394.76 521.8"><path d="M30.08,337.02c1.73,11.33,2.78,21.88,5.01,32.17,7.74,35.75,23.51,67.27,50.18,92.89,16.01,15.37,34.86,24.42,57.18,24.81,19.73.34,36.22-8.06,49.93-21.67,21.43-21.28,33.27-47.36,36.82-77.21.94-7.9,1.08-15.9,1.65-24.77,5.91-.92,12.23-1.91,18.55-2.87,19.83-3.02,39.1-7.91,56.95-17.34,9.2-4.85,17.39-11.04,23.85-19.36,1.1-1.42,3.08-2.84,4.78-3.01,13.89-1.34,27.24.41,39.4,7.87,16.17,9.92,21.97,24.92,20,43.02-2.59,23.8-17.05,40.18-35.5,53.63-20.33,14.83-43.69,22.2-68.08,26.76-4.39.82-7.71,2.38-10.75,6.08-5.94,7.26-12.79,13.77-19.4,20.74,7.72,1.12,15.78,1.82,23.61,3.55,9.52,2.1,18.95,4.75,28.17,7.9,2.63.9,5.6,4.08,6.24,6.74,1.01,4.16-2.88,6.8-6.32,7.83-11.27,3.35-22.57,7.01-34.12,8.99-39.84,6.83-80.09,8.57-120.44,7.88-38.96-.66-77.87-2.43-116.15-10.65-5.82-1.25-11.55-3.14-17.13-5.24-3.88-1.46-8.76-3.83-7.77-8.42.67-3.12,4.63-6.76,7.89-7.86,9.08-3.07,18.5-5.28,27.92-7.17,8.4-1.68,16.98-2.47,26.19-3.74-2.16-2.03-3.88-3.69-5.65-5.29-36.65-33.1-56.5-74.95-63.6-123.19-1.27-8.62-.61-17.56-.53-26.35.07-7.82,4.4-13.41,10.45-17.81,10.6-7.69,22.86-11.26,35.45-13.94,17.63-3.75,35.43-5.88,53.48-5.42,1.06.03,2.11.34,3.19,1.52-8.43,1.36-16.88,2.58-25.28,4.1-15.2,2.76-30.42,5.58-44.42,12.55-4.6,2.29-9.86,4.69-9.83,10.8.03,6,5.39,8.51,9.87,10.06,13.45,4.66,26.93,9.77,40.83,12.47,38.42,7.47,77.35,8.38,116.38,6.53,24.47-1.16,48.79-3.53,72.42-10.31,8.09-2.32,15.88-5.74,23.74-8.85,1.8-.71,3.4-2.1,4.9-3.4,5.67-4.91,5.87-10.42-.78-13.59-9.65-4.59-19.79-8.65-30.16-11.12-29.8-7.1-60.18-10.62-90.76-12.35-1.22-.07-2.43-.3-3.64-.45,0-.45,0-.91,0-1.36,6.02-.33,12.04-.92,18.06-.94,33.71-.1,67.18,2.37,99.84,11.25,7.6,2.07,15.11,5.26,21.95,9.17,11.27,6.44,11.73,15.47,1.92,24.15-9.26,8.19-20.35,13.2-31.9,17.09-23.11,7.78-46.97,12.36-71.22,14.03-22.23,1.53-44.59,2.41-66.86,1.98-32.67-.63-65.01-4.62-96.27-14.85-6.42-2.1-12.58-4.98-20.25-8.06ZM300.03,429.12c1.17,0,2.49.25,3.7-.04,15.5-3.67,30.13-9.44,42.78-19.31,11.72-9.14,21.41-19.91,25.1-34.91,4.13-16.78-4.01-30.44-19.62-32.32-7.28-.88-14.09,1.15-20.66,4.41-4.44,2.2-6.29,5.41-7.37,10.24-3.17,14.19-6.43,28.43-10.9,42.24-3.29,10.15-8.55,19.67-13.02,29.68Z" style="fill:#000; stroke-width:0px;"/><path d="M182.04,0c53.78.43,103.1,15.17,147.47,45.51,10.67,7.29,20.43,15.97,30.2,24.49,6.24,5.44,6.55,11.3,2.03,16.06-4.71,4.95-11.35,4.78-17.27-.62-34.19-31.17-73.94-51.33-119.67-58.55-67.13-10.61-129.42,1.6-185.06,41.98-7.24,5.26-13.61,11.72-20.39,17.61-4.82,4.2-11.6,4.35-15.85.37-4.36-4.09-4.93-10.49-.06-15.07,8.94-8.42,18.02-16.84,27.95-24.01C67.18,21.93,107.49,7.35,151.16,1.97c10.22-1.26,20.58-1.35,30.88-1.97Z" style="fill:#000; stroke-width:0px;"/><path d="M182.11,54.77c47.69.72,91.32,16.37,128.63,48.83.88.76,1.77,1.52,2.56,2.38,3.97,4.34,4.25,10.21.72,13.98-3.73,3.98-9.57,3.91-14.44.44-11.36-8.07-22.29-17.01-34.47-23.64-65.09-35.46-140.05-25.6-194.68,20.46-3.37,2.84-6.26,6.57-11.45,6.26-4.21-.26-7.95-1.21-9.88-5.43-1.96-4.27-1.31-8.48,2.16-11.39,8.39-7.04,16.66-14.38,25.82-20.31,31.4-20.35,65.89-31.17,105.03-31.56Z" style="fill:#000; stroke-width:0px;"/><path d="M220.24,104.53c14.15,6.71,23.24,17.13,29.52,30.13,16.19,33.52,3.86,73.33-29.22,93.58-10.18,6.23-21.04,11.36-31.52,17.1-12.17,6.66-23.26,14.73-28.44,28.19-6.8,17.67-3.85,33.91,8.94,48.14.65.73,1.34,1.43,1.72,2.4-13.31-6.8-23.17-16.66-27-31.55-5.26-20.45,1.25-37.98,15.27-52.52,7.65-7.93,16.92-14.49,26.14-20.64,13.5-9,26.74-18.07,36.26-31.57,17.14-24.3,18.15-57.11-.45-80.89-.36-.46-.55-1.05-1.22-2.38Z" style="fill:#000; stroke-width:0px;"/><path d="M180.66,94.18c18.52,5.83,30.93,17.64,35.17,36.47,5.02,22.3-2.4,41.42-18.75,56.38-11.23,10.27-24.45,18.33-36.5,27.73-7.06,5.51-14.11,11.22-20.24,17.71-18.08,19.12-19.92,48.22-4.99,69.85.54.78,1.08,1.57.83,3.2-2.93-2.69-6.15-5.12-8.73-8.11-22.34-25.8-22.32-60.57,1.06-85.53,10.87-11.61,23.47-21.63,35.48-32.15,8.97-7.86,16.93-16.51,22.62-27.03,9.44-17.44,8.74-34.69-1.48-51.61-1.42-2.34-2.97-4.6-4.46-6.9Z" style="fill:#000; stroke-width:0px;"/><path d="M180.88,120.72c-.1,4.06-3.44,7.67-8.34,8.63-5.36,1.05-10.82,1.63-16.15,2.8-12.73,2.81-23.9,8.6-33.53,17.54-2.25,2.09-5.62,3.83-8.62,4.08-3.88.32-7.34-1.84-8.99-5.86-1.6-3.88-.62-7.59,2.31-9.99,6.51-5.34,13.04-10.86,20.31-15,13.14-7.48,27.51-11.46,42.79-11.32,6.28.05,10.36,3.81,10.22,9.12Z" style="fill:#000; stroke-width:0px;"/></svg>